<?xml version="1.0" encoding="UTF-8"?>
<svg width="18px" height="19px" viewBox="0 0 18 19" version="1.1" xmlns="http://www.w3.org/2000/svg" xmlns:xlink="http://www.w3.org/1999/xlink">
    <title>报销管理-选中</title>
    <g id="页面-1" stroke="none" stroke-width="1" fill="none" fill-rule="evenodd">
        <g id="侧边" transform="translate(-312.000000, -377.000000)">
            <g id="报销管理-选中" transform="translate(312.000000, 377.984302)">
                <rect id="矩形" fill="#FFFFFF" opacity="0" x="0" y="0" width="18" height="18"></rect>
                <g id="pinpaizengzhi" transform="translate(1.000000, 1.000000)" fill="currentColor" fill-rule="nonzero">
                    <path d="M13.2772225,0 C14.7785376,0 16,1.22146239 16,2.72277749 L16,2.72277749 L16,13.2772225 C16,14.7785376 14.7785376,16 13.2772225,16 L13.2772225,16 L2.72277749,16 C1.22146239,16 0,14.7785376 0,13.2772225 L0,13.2772225 L0,2.72277749 C0,1.22146239 1.22146239,0 2.72277749,0 L2.72277749,0 Z M4.00000409,7.19820506 C3.58135419,7.19807262 3.23340282,7.52073429 3.20200409,7.93820511 L3.19999592,7.99820511 L3.19999592,11.1982051 C3.19807301,11.6297368 3.53874759,11.9850303 3.96997969,12.0012217 C4.40121179,12.0174132 4.76756997,11.6886665 4.79800409,11.2582051 L4.80000408,11.1982051 L4.80000408,7.99820511 C4.80000408,7.55637731 4.44183189,7.19820506 4.00000409,7.19820506 Z M8.00000408,3.99820508 C7.58135418,3.99807263 7.23340282,4.3207343 7.20200409,4.7382051 L7.19999591,4.7982051 L7.19999591,11.1982051 C7.198073,11.6297368 7.53874758,11.9850303 7.96997968,12.0012217 C8.40121178,12.0174132 8.76756996,11.6886665 8.79800408,11.2582051 L8.80000409,11.1982051 L8.80000409,4.7982051 C8.80000409,4.35637731 8.44183188,3.99820508 8.00000408,3.99820508 Z M12.0000041,5.59820507 C11.5813542,5.59807263 11.2334028,5.9207343 11.2020041,6.33820512 L11.1999959,6.39820512 L11.1999959,11.1982051 C11.1980732,11.6297366 11.5387477,11.98503 11.9699797,12.0012214 C12.4012117,12.0174129 12.7675698,11.6886664 12.7980041,11.2582051 L12.8000041,11.1982051 L12.8000041,6.39820512 C12.8000041,6.18603192 12.7157186,5.98254879 12.5656895,5.83251969 C12.4156604,5.68249058 12.2121773,5.59820507 12.0000041,5.59820507 Z" id="形状结合"></path>
                </g>
            </g>
        </g>
    </g>
</svg>