<?xml version="1.0" encoding="UTF-8"?>
<svg width="18px" height="19px" viewBox="0 0 18 19" version="1.1" xmlns="http://www.w3.org/2000/svg" xmlns:xlink="http://www.w3.org/1999/xlink">
    <title>积分管理-选中</title>
    <g id="页面-1" stroke="none" stroke-width="1" fill="none" fill-rule="evenodd">
        <g id="侧边" transform="translate(-312.000000, -236.000000)">
            <g id="积分管理-选中" transform="translate(312.000000, 236.984302)">
                <rect id="矩形" fill="#FFFFFF" opacity="0" x="0" y="0" width="18" height="18"></rect>
                <g id="jifenguanli-2" transform="translate(0.500000, 0.500000)" fill="currentColor" fill-rule="nonzero">
                    <path d="M8.50711212,5.93862061 C7.77354769,6.93533349 6.77886684,7.88429357 5.96300502,8.48780779 C6.94447765,9.17768348 7.83552474,10.0717786 8.51625628,11.0502032 C9.38291896,9.78424576 10.2648219,9.04661726 11.038011,8.52133636 C9.84114272,7.68617021 9.00394454,6.66100885 8.50711212,5.93862061 L8.50711212,5.93862061 Z" id="路径"></path>
                    <path d="M8.5,0 C3.8131126,0 0,3.8131126 0,8.5 C0,13.1868874 3.8131126,17 8.5,17 C13.1868874,17 17,13.1868874 17,8.5 C17,3.8131126 13.1868874,0 8.5,0 Z M12.5589888,9.05372938 L12.5224121,9.07608176 C11.5155391,9.68569209 10.2617738,10.4446569 9.0608415,12.5600048 C8.94858286,12.7572206 8.73911972,12.8790342 8.51219221,12.8790342 L8.50406407,12.8790342 C8.27444975,12.8759764 8.06465885,12.7483115 7.95643079,12.5457805 C7.19949797,11.1274205 5.89493187,9.81675831 4.46641167,9.04052116 C4.25282839,8.92453173 4.1250935,8.69595351 4.13823811,8.45326321 C4.15157903,8.21049821 4.30283392,7.99684574 4.5273727,7.9035979 C5.22029644,7.61809706 7.14971312,5.96402104 7.96659096,4.45320344 C8.0767637,4.24954376 8.28978672,4.12274434 8.52133636,4.12299747 L8.53251255,4.12299747 C8.76721253,4.12706192 8.98057614,4.26117619 9.08522591,4.47149175 C9.0964021,4.49384413 10.2495816,6.75651446 12.5264762,7.95744681 C12.7276215,8.06352374 12.8561093,8.26964758 12.8627779,8.49695195 C12.868596,8.72357133 12.7527023,8.93597849 12.5589888,9.05372938 L12.5589888,9.05372938 Z" id="形状"></path>
                </g>
            </g>
        </g>
    </g>
</svg>