<?xml version="1.0" encoding="UTF-8"?>
<svg width="18px" height="19px" viewBox="0 0 18 19" version="1.1" xmlns="http://www.w3.org/2000/svg" xmlns:xlink="http://www.w3.org/1999/xlink">
    <title>发货管理-选中</title>
    <g id="页面-1" stroke="none" stroke-width="1" fill="none" fill-rule="evenodd">
        <g id="侧边" transform="translate(-312.000000, -168.000000)">
            <g id="发货管理-选中" transform="translate(312.000000, 168.984002)">
                <rect id="矩形" fill="#FFFFFF" opacity="0" x="0" y="0" width="18" height="18.0002994"></rect>
                <g id="daifahuo-8" transform="translate(1.250000, 1.422523)" fill-rule="nonzero">
                    <path d="M11.6677107,0 C12.5523957,0 13.345684,0.493373196 13.7370041,1.28756206 L13.7370041,1.28756206 L15.1762811,4.20875731 C15.2002395,4.25844958 15.2170991,4.3090292 15.2268599,4.36138355 C15.257917,4.43325987 15.2747766,4.51134771 15.2747766,4.59475972 L15.2747766,4.59475972 L15.2747766,12.8481124 C15.2747766,14.1205893 14.2401299,15.1552533 12.9676742,15.1552533 L12.9676742,15.1552533 L2.45704771,15.1552533 C1.18459197,15.1552533 0.149945241,14.1205893 0.149945241,12.8481124 L0.149945241,12.8481124 L0.149945241,4.59475972 C0.149945241,4.51046035 0.167692183,4.43148514 0.198749332,4.35872147 C0.209397497,4.30636712 0.226257092,4.25490013 0.251102811,4.20520787 L0.251102811,4.20520787 L1.71611288,1.275139 C2.10920765,0.488936386 2.89983392,0 3.7791949,0 L3.7791949,0 Z" id="形状结合" fill="currentColor"></path>
                    <path d="M9.93738381,6.80251604 L11.819447,8.97921469 C11.9934967,9.18018184 11.9923598,9.47881976 11.816785,9.67845584 L9.93472177,11.8258715 C9.83434837,11.9416144 9.68861716,12.0080041 9.53541557,12.0077813 C9.41118698,12.0077813 9.28607103,11.9643 9.18491346,11.8755638 C8.96401447,11.6815576 8.94178749,11.345369 9.13522203,11.1239683 L10.2424952,9.85999831 L3.9469035,9.86036502 C3.65319161,9.86036502 3.41449524,9.62166468 3.41449524,9.3279479 C3.41449524,9.03423112 3.65319161,8.79553078 3.9469035,8.79553078 L10.2534952,8.79499831 L9.13255998,7.4990951 C8.94772237,7.27615273 8.97501698,6.94634579 9.1939899,6.75682364 C9.41296281,6.56730148 9.74326848,6.58760358 9.93738381,6.80251604 Z" id="形状结合" fill="#FFFFFF"></path>
                    <rect id="矩形" fill="#FFFFFF" x="0" y="3.99502642" width="15.5" height="1.07523595"></rect>
                </g>
            </g>
        </g>
    </g>
</svg>