<?xml version="1.0" encoding="UTF-8"?>
<svg width="18px" height="19px" viewBox="0 0 18 19" version="1.1" xmlns="http://www.w3.org/2000/svg" xmlns:xlink="http://www.w3.org/1999/xlink">
    <title>订单管理-选中</title>
    <g id="页面-1" stroke="none" stroke-width="1" fill="none" fill-rule="evenodd">
        <g id="侧边" transform="translate(-312.000000, -134.000000)">
            <g id="订单管理-选中" transform="translate(312.000000, 134.984002)">
                <rect id="矩形" fill="#A2A3A6" opacity="0" x="0" y="0" width="18" height="18"></rect>
                <g id="yinshua" transform="translate(1.000000, 1.265355)" fill="color" fill-rule="nonzero">
                    <path d="M14.3896353,5.59309021 L14.2399232,5.59309021 L14.2399232,8.97792706 C14.2399232,10.0220729 13.3934741,10.8675624 12.3502879,10.8675624 L3.64971209,10.8675624 C2.60556622,10.8675624 1.76007678,10.0211132 1.76007678,8.97792706 L1.76007678,5.59309021 L1.61036468,5.59309021 C0.720729367,5.59309021 0,6.31381958 0,7.20345489 L0,13.8589251 C0,14.7485605 0.720729367,15.4692898 1.61036468,15.4692898 L14.3896353,15.4692898 C15.2792706,15.4692898 16,14.7485605 16,13.8589251 L16,7.20441459 C16,6.31477927 15.2792706,5.59309021 14.3896353,5.59309021 Z" id="路径"></path>
                    <path d="M11.8761996,0 L4.12380038,0 C3.46928983,0 2.93761996,0.530710173 2.93761996,1.18618042 L2.93761996,8.54894434 C2.93761996,9.20345489 3.46833013,9.73512476 4.12380038,9.73512476 L11.8761996,9.73512476 C12.5307102,9.73512476 13.06238,9.20441459 13.06238,8.54894434 L13.06238,1.18618042 C13.06238,0.531669866 12.5307102,0 11.8761996,0 Z M8.36948177,6.82053743 L5.57485605,6.82053743 C5.26871401,6.82053743 5.02015355,6.57197697 5.02015355,6.26583493 C5.02015355,5.9596929 5.26871401,5.71113244 5.57485605,5.71113244 L8.36948177,5.71113244 C8.6756238,5.71113244 8.92418426,5.9596929 8.92418426,6.26583493 C8.92418426,6.57197697 8.6756238,6.82053743 8.36948177,6.82053743 Z M10.4952015,3.95297505 L5.57485605,3.95297505 C5.26871401,3.95297505 5.02015355,3.70441459 5.02015355,3.39827255 C5.02015355,3.09213052 5.26871401,2.84357006 5.57485605,2.84357006 L10.4952015,2.84357006 C10.8013436,2.84357006 11.049904,3.09213052 11.049904,3.39827255 C11.049904,3.70537428 10.8023033,3.95297505 10.4952015,3.95297505 Z" id="形状"></path>
                </g>
            </g>
        </g>
    </g>
</svg>