<?xml version="1.0" encoding="UTF-8"?>
<svg width="18px" height="19px" viewBox="0 0 18 19" version="1.1" xmlns="http://www.w3.org/2000/svg" xmlns:xlink="http://www.w3.org/1999/xlink">
    <title>直通车-选中</title>
    <g id="页面-1" stroke="none" stroke-width="1" fill="none" fill-rule="evenodd">
        <g id="侧边" transform="translate(-312.000000, -338.000000)">
            <g id="直通车-选中" transform="translate(312.000000, 338.984302)">
                <rect id="矩形" fill="#FFFFFF" opacity="0" x="0" y="0" width="18" height="18"></rect>
                <g id="xiaoshuai" transform="translate(1.619920, 1.000000)" fill="currentColor" fill-rule="nonzero">
                    <path d="M14.4573037,0.901978828 L14.4563131,0.901978828 C14.3522986,0.181802378 13.8936443,0.0223135084 13.2388484,0.00448245461 C9.6795719,-0.0906164988 6.89990874,1.32794289 4.82754405,4.2165736 C4.51153815,4.65739687 4.04694014,5.05760497 3.56252984,5.29931481 C1.98844404,6.08685302 0.813575719,7.24389029 0.0567465476,8.81797609 C-0.0383524058,9.01708952 -0.0106152111,9.37569182 0.115192779,9.54607745 C0.206329276,9.66990421 0.569884651,9.67089483 0.782866682,9.61442982 C1.40398172,9.44899727 2.00231264,9.18549392 2.62838075,9.04878917 C2.84928769,9.00024908 3.17420912,9.14785058 3.36836948,9.30733945 C4.40554244,10.158277 5.3159168,11.218234 6.46106669,11.8690675 C7.91132573,12.6932584 8.23327532,13.7294408 7.82613292,15.2123901 C7.76372423,15.4412219 7.87665424,15.8731297 8.04406802,15.9662474 C8.21742549,16.0633276 8.61565236,15.9355384 8.81476579,15.7790214 C10.1075172,14.7636419 10.9723233,13.4342378 11.3418224,11.8423209 C11.5191423,11.0755856 11.8955756,10.5119262 12.3968264,9.93836063 C13.3715906,8.82193854 14.0036024,7.81250278 14.3572517,6.56829147 C14.3592329,6.56631024 14.3602235,6.56432901 14.3622047,6.5633384 C15.198283,4.11057789 14.4573037,0.901978828 14.4573037,0.901978828 Z M9.82816401,7.73424426 C8.72759175,7.86401471 7.84198275,7.14482888 7.71716537,6.01850065 C7.59730106,4.93675005 8.3303555,3.96693885 9.38040644,3.81933735 C10.4264949,3.67173585 11.4666397,4.48998309 11.5954196,5.56182755 C11.7261806,6.66438104 10.965389,7.60051136 9.82816401,7.73424426 Z" id="形状"></path>
                    <path d="M5.39021285,13.7373657 C5.82707367,13.1964904 5.57347646,12.1315802 4.96722063,11.6422169 C4.9652394,11.6402357 4.96226756,11.639245 4.96028633,11.6372638 L4.95434265,11.6313201 C4.34808682,11.1419568 3.25345824,11.1171914 2.81659743,11.6580667 C2.3371402,12.2514446 1.83489885,13.7126003 1.54563954,14.8102008 C1.39011312,15.4015974 2.04490904,15.9276135 2.58875618,15.6472697 C3.6090887,15.1222442 4.93353975,14.3020157 5.39021285,13.7373657 Z" id="路径"></path>
                </g>
            </g>
        </g>
    </g>
</svg>