<?xml version="1.0" encoding="UTF-8"?>
<svg width="18px" height="19px" viewBox="0 0 18 19" version="1.1" xmlns="http://www.w3.org/2000/svg" xmlns:xlink="http://www.w3.org/1999/xlink">
    <title>营销管理-选中</title>
    <g id="页面-1" stroke="none" stroke-width="1" fill="none" fill-rule="evenodd">
        <g id="侧边" transform="translate(-312.000000, -270.000000)">
            <g id="营销管理-选中" transform="translate(312.000000, 270.984302)">
                <rect id="矩形" fill="#FFFFFF" opacity="0" x="0" y="0" width="18" height="18"></rect>
                <g id="pinpaizengzhi" transform="translate(1.000000, 1.000000)" fill="currentColor" fill-rule="nonzero">
                    <path d="M13.2772225,0 L2.72277749,0 C1.22146239,0 0,1.22146239 0,2.72277749 L0,13.2772225 C0,14.7785376 1.22146239,16 2.72277749,16 L13.2772225,16 C14.7785376,16 16,14.7785376 16,13.2772225 L16,2.72277749 C16,1.22146239 14.7785376,0 13.2772225,0 L13.2772225,0 Z M12.9637033,8.61125723 C12.9637033,8.98893749 12.657533,9.29510784 12.2798527,9.29510784 C11.9021724,9.29510784 11.5960021,8.98893749 11.5960021,8.61125723 L11.5960021,7.45712783 L9.11415045,9.95160442 C8.85417379,10.2125539 8.43429345,10.2209236 8.16412415,9.97054182 L6.59547607,8.51551815 L4.00526039,11.1057338 C3.8716465,11.2393477 3.69700158,11.3056286 3.52130458,11.3056286 C3.34560757,11.3056286 3.17096265,11.2393477 3.03734876,11.1057338 C2.90902396,10.9775794 2.8369175,10.8036623 2.8369175,10.6223041 C2.8369175,10.4409458 2.90902396,10.2670287 3.03734876,10.1388743 L6.09258285,7.08258811 C6.35264908,6.82245026 6.77187338,6.81454914 7.04155708,7.06470279 L8.608101,8.5176223 L10.6049448,6.51025776 L9.56654392,6.51025776 C9.18886366,6.51025776 8.88269332,6.20408741 8.88269332,5.82640715 C8.88269332,5.44872689 9.18886366,5.14255655 9.56654392,5.14255655 L12.2777486,5.14255655 C12.459117,5.14255655 12.6330571,5.21460489 12.761304,5.34285175 C12.8895508,5.47109862 12.9615992,5.6450387 12.9615992,5.82640715 L12.9615992,8.61125723 L12.9637033,8.61125723 Z" id="形状"></path>
                </g>
            </g>
        </g>
    </g>
</svg>