<?xml version="1.0" encoding="UTF-8"?>
<svg width="18px" height="19px" viewBox="0 0 18 19" version="1.1" xmlns="http://www.w3.org/2000/svg" xmlns:xlink="http://www.w3.org/1999/xlink">
    <title>会员管理-选中</title>
    <g id="页面-1" stroke="none" stroke-width="1" fill="none" fill-rule="evenodd">
        <g id="侧边" transform="translate(-312.000000, -202.000000)">
            <g id="会员管理-选中" transform="translate(312.000000, 202.984302)">
                <rect id="矩形" fill="#FFFFFF" opacity="0" x="0" y="0" width="18" height="18"></rect>
                <g id="huiyuan-8" transform="translate(0.500000, 1.210484)" fill="currentColor" fill-rule="nonzero">
                    <path d="M16.8333037,5.93188373 L13.7054409,0.599743481 C13.4872634,0.227961225 13.0890651,0 12.6585803,0 L4.23966899,0 C3.80429241,0 3.40315892,0.232853097 3.18595981,0.610505599 L0.160826297,5.89079201 C-0.10450278,6.35340475 -0.0366120559,6.93504165 0.328128313,7.32411044 L7.70115747,15.1951322 C8.18349603,15.7097571 9.00239537,15.7068219 9.47984206,15.1873052 L16.6787206,7.36813729 C17.0407191,6.97580917 17.1033351,6.39269805 16.8333037,5.93188373 Z M13.0978704,5.31942138 L9.41918284,9.06855192 C9.15784558,9.33691157 8.79875885,9.48767856 8.42417612,9.48632691 L8.41243563,9.48632691 C8.03086963,9.48338265 7.67571974,9.3287995 7.41253704,9.05191956 L3.86005974,5.31257276 C3.63699039,5.07776292 3.64677413,4.70598066 3.88158398,4.48291131 C4.11639383,4.25984195 4.48817608,4.2696257 4.71124544,4.50443554 L8.26372273,8.24476071 C8.31949007,8.30346317 8.3869979,8.31324692 8.42221937,8.31324692 L8.42417612,8.31324692 C8.4593976,8.31324692 8.52592706,8.30444155 8.58169439,8.24769584 L12.260382,4.4985653 C12.4873648,4.26669057 12.8591471,4.26375545 13.0910218,4.4907383 C13.3219182,4.71674278 13.3248533,5.08852503 13.0978704,5.31942138 L13.0978704,5.31942138 Z" id="形状"></path>
                </g>
            </g>
        </g>
    </g>
</svg>