<?xml version="1.0" encoding="UTF-8"?>
<svg width="18px" height="19px" viewBox="0 0 18 19" version="1.1" xmlns="http://www.w3.org/2000/svg" xmlns:xlink="http://www.w3.org/1999/xlink">
    <title>控制台-选中</title>
    <g id="页面-1" stroke="none" stroke-width="1" fill="none" fill-rule="evenodd">
        <g id="侧边" transform="translate(-312.000000, -100.000000)">
            <g id="控制台-选中" transform="translate(312.000000, 100.984002)">
                <rect id="矩形" fill="#FFFFFF" opacity="0" x="0" y="0" width="18" height="18"></rect>
                <g id="jiankong" transform="translate(1.000000, 1.117792)" fill-rule="nonzero">
                    <path d="M13.5587493,13.0124949 L2.44031208,13.0124949 C1.09438611,13.0124949 0,11.9181088 0,10.5721828 L0,2.44031208 C0,1.09438611 1.09438611,0 2.44031208,0 L13.5596879,0 C14.9056139,0 16,1.09438611 16,2.44031208 L16,10.5721828 C15.9990614,11.9181088 14.9046753,13.0124949 13.5587493,13.0124949 Z" id="路径" fill="currentColor"></path>
                    <path d="M2.44031208,1.12629788 C1.71572711,1.12629788 1.12629788,1.71572711 1.12629788,2.44031208 L1.12629788,10.5721828 C1.12629788,11.2967678 1.71572711,11.886197 2.44031208,11.886197 L13.5596879,11.886197 C14.2842729,11.886197 14.8737021,11.2967678 14.8737021,10.5721828 L14.8737021,2.44031208 C14.8737021,1.71572711 14.2842729,1.12629788 13.5596879,1.12629788 L2.44031208,1.12629788 Z" id="路径" fill="currentColor"></path>
                    <path d="M11.5595706,15.764416 L4.43949082,15.764416 C4.12882032,15.764416 3.87634188,15.5119376 3.87634188,15.2012671 C3.87634188,14.8905966 4.12882032,14.6381181 4.43949082,14.6381181 L11.5595706,14.6381181 C11.8702411,14.6381181 12.1227195,14.8905966 12.1227195,15.2012671 C12.1227195,15.5119376 11.8702411,15.764416 11.5595706,15.764416 L11.5595706,15.764416 Z" id="路径" fill="currentColor"></path>
                    <path d="M3.31788585,8.75508923 C3.16297284,8.75526479 3.01487551,8.6914063 2.90866428,8.57863554 C2.8059504,8.47018043 2.75060197,8.32531874 2.75482785,8.17600433 C2.75905373,8.02668992 2.82250672,7.88519053 2.93119024,7.78271837 L5.91494105,4.96134217 C6.12936456,4.75862317 6.46389664,4.75575692 6.68176219,4.9547721 L9.06012788,7.13228134 L12.2916642,4.02933067 C12.5159852,3.81439549 12.8726462,3.82096557 13.0875814,4.04528656 C13.3025166,4.26960756 13.2959465,4.62626855 13.0716255,4.84120373 L9.45902505,8.31020121 C9.2446465,8.51559362 8.90776725,8.5196969 8.68844958,8.31958702 L6.30726814,6.13926204 L3.70458145,8.60116149 C3.60004225,8.69992727 3.4617021,8.75499471 3.31788585,8.75508923 Z" id="路径" fill="#FFFFFF"></path>
                </g>
            </g>
        </g>
    </g>
</svg>